brrip of theatrical version of alien. please seed and enjoy.



General
Complete name                            : C:Alien (1979) brripAlien (1979) brrip.mp4
Format                                   : MPEG-4
Format profile                           : Base Media
Codec ID                                 : isom
File size                                : 1 000 MiB
Duration                                 : 1h 56mn
Overall bit rate mode                    : Variable
Overall bit rate                         : 1 198 Kbps
Encoded date                             : UTC 2012-08-07 17:33:15
Tagged date                              : UTC 2012-08-07 17:33:15

Video
ID                                       : 1
Format                                   : AVC
Format/Info                              : Advanced Video Codec
Format profile                           : High 10@L4.0
Format settings, CABAC                   : Yes
Format settings, ReFrames                : 3 frames
Codec ID                                 : avc1
Codec ID/Info                            : Advanced Video Coding
Duration                                 : 1h 56mn
Bit rate                                 : 1 067 Kbps
Maximum bit rate                         : 15.6 Mbps
Width                                    : 1 920 pixels
Height                                   : 818 pixels
Display aspect ratio                     : 2.35:1
Frame rate mode                          : Constant
Frame rate                               : 23.976 fps
Color space                              : YUV
Chroma subsampling                       : 4:2:0
Bit depth                                : 10 bits
Scan type                                : Progressive
Bits/(Pixel*Frame)                       : 0.028
Stream size                              : 890 MiB (89%)
Writing library                          : x264 core 124 r2197 69a0443

Audio
ID                                       : 2
Format                                   : AAC
Format/Info                              : Advanced Audio Codec
Format profile                           : LC
Codec ID                                 : 40
Duration                                 : 1h 56mn
Bit rate mode                            : Variable
Bit rate                                 : 128 Kbps
Maximum bit rate                         : 134 Kbps
Channel(s)                               : 2 channels
Channel positions                        : Front: L R
Sampling rate                            : 48.0 KHz
Compression mode                         : Lossy
Stream size                              : 107 MiB (11%)
Language                                 : English
Encoded date                             : UTC 2012-08-07 17:33:58
Tagged date                              : UTC 2012-08-07 17:34:16

Menu
